<svg width="16" height="16" viewBox="0 0 16 16" fill="none" xmlns="http://www.w3.org/2000/svg">
<path d="M9.18912 1.8746L7.85472 3.27082C7.69893 3.25935 7.54643 3.28116 7.39394 3.30298L5.99771 1.96859L4.60684 2.59039L4.67014 4.52069C4.54685 4.63376 4.44821 4.72421 4.3389 4.84262L2.4086 4.90592L1.87453 6.30361L3.27075 7.63801C3.27325 7.79914 3.28643 7.93232 3.30291 8.09879L1.96851 9.49502L2.59032 10.8859L4.52062 10.8226C4.62505 10.9266 4.72414 11.0445 4.84254 11.1538L4.90584 13.0841L6.30354 13.6182L7.63794 12.222C7.78509 12.2141 7.94622 12.2116 8.09872 12.1898L9.49494 13.5242L10.8858 12.9024L10.8225 10.9721C10.9265 10.8677 11.0498 10.7546 11.1538 10.6502L13.0841 10.5869L13.6181 9.18919L12.2219 7.8548C12.228 7.71298 12.2116 7.54651 12.1897 7.39401L13.5241 5.99779L12.9023 4.60691L10.972 4.67021C10.8676 4.56624 10.7545 4.44295 10.6501 4.33897L10.5868 2.40868L9.18912 1.8746ZM8.55278 5.63588C9.71287 6.07916 10.2915 7.37345 9.84821 8.53354C9.40493 9.69363 8.11065 10.2723 6.95056 9.82897C5.79047 9.38569 5.21184 8.0914 5.65512 6.93131C6.09841 5.77123 7.39269 5.1926 8.55278 5.63588Z" fill="#A4A4A4"/>
</svg>
