<svg width="33" height="10" viewBox="0 0 33 10" fill="none" xmlns="http://www.w3.org/2000/svg">
<path d="M0.832031 4.6582L5.58398 2.17969V3.23438C5.58398 3.3125 5.56445 3.38477 5.52539 3.45117C5.48633 3.51758 5.41992 3.57422 5.32617 3.62109L3.14648 4.74023C3.05664 4.78711 2.95898 4.82812 2.85352 4.86328C2.75195 4.89844 2.64453 4.92969 2.53125 4.95703C2.64453 4.98438 2.75195 5.01562 2.85352 5.05078C2.95898 5.08203 3.05664 5.12305 3.14648 5.17383L5.32617 6.29297C5.41992 6.33984 5.48633 6.39648 5.52539 6.46289C5.56445 6.5293 5.58398 6.60352 5.58398 6.68555V7.74023L0.832031 5.25586V4.6582ZM14.3889 9H13.1169L10.0809 4.908L9.20494 5.676V9H8.12494V0.431999H9.20494V4.656C9.44494 4.384 9.68894 4.112 9.93694 3.84C10.1849 3.568 10.4329 3.296 10.6809 3.024L12.9969 0.431999H14.2569L10.8609 4.164L14.3889 9ZM18.0026 0.431999C18.7146 0.431999 19.3106 0.5 19.7906 0.636C20.2786 0.772 20.6426 0.996 20.8826 1.308C21.1306 1.62 21.2546 2.036 21.2546 2.556C21.2546 2.892 21.1906 3.192 21.0626 3.456C20.9426 3.712 20.7586 3.928 20.5106 4.104C20.2706 4.272 19.9746 4.388 19.6226 4.452V4.512C19.9826 4.568 20.3066 4.672 20.5946 4.824C20.8906 4.976 21.1226 5.192 21.2906 5.472C21.4586 5.752 21.5426 6.116 21.5426 6.564C21.5426 7.084 21.4226 7.528 21.1826 7.896C20.9426 8.256 20.5986 8.532 20.1506 8.724C19.7106 8.908 19.1826 9 18.5666 9H15.5546V0.431999H18.0026ZM18.2186 4.08C18.9546 4.08 19.4586 3.964 19.7306 3.732C20.0026 3.492 20.1386 3.14 20.1386 2.676C20.1386 2.204 19.9706 1.868 19.6346 1.668C19.3066 1.46 18.7786 1.356 18.0506 1.356H16.6346V4.08H18.2186ZM16.6346 4.98V8.088H18.3626C19.1226 8.088 19.6506 7.94 19.9466 7.644C20.2426 7.348 20.3906 6.96 20.3906 6.48C20.3906 6.176 20.3226 5.912 20.1866 5.688C20.0586 5.464 19.8386 5.292 19.5266 5.172C19.2226 5.044 18.8066 4.98 18.2786 4.98H16.6346ZM23.5078 9.01758C23.4688 9.11133 23.4219 9.19141 23.3672 9.25781C23.3125 9.32422 23.248 9.38086 23.1738 9.42773C23.1035 9.47461 23.0273 9.50977 22.9453 9.5332C22.8672 9.55664 22.7891 9.56836 22.7109 9.56836H22.0898L25.5938 0.603516C25.6602 0.435547 25.7578 0.306641 25.8867 0.216797C26.0156 0.126953 26.1699 0.0820312 26.3496 0.0820312H26.9824L23.5078 9.01758ZM28.207 7.74023V6.68555C28.207 6.60352 28.2266 6.5293 28.2656 6.46289C28.3047 6.39648 28.3711 6.33984 28.4648 6.29297L30.6445 5.17383C30.8203 5.08398 31.0254 5.01172 31.2598 4.95703C31.1465 4.92969 31.0371 4.89844 30.9316 4.86328C30.8301 4.82812 30.7344 4.78711 30.6445 4.74023L28.4648 3.62109C28.3711 3.57422 28.3047 3.51758 28.2656 3.45117C28.2266 3.38477 28.207 3.3125 28.207 3.23438V2.17969L32.959 4.6582V5.25586L28.207 7.74023Z" fill="url(#paint0_linear_90_7)"/>
<defs>
<linearGradient id="paint0_linear_90_7" x1="0" y1="2" x2="34" y2="2" gradientUnits="userSpaceOnUse">
<stop stop-color="#76ABAE"/>
<stop offset="0.5" stop-color="#222831"/>
</linearGradient>
</defs>
</svg>
